<svg width="13" height="13" viewBox="0 0 13 13" fill="none" xmlns="http://www.w3.org/2000/svg">
<path d="M7.40234 11.9453C7.67578 11.6719 7.64844 11.2617 7.40234 10.9883L4.09375 7.84375H11.9688C12.3242 7.84375 12.625 7.57031 12.625 7.1875V6.3125C12.625 5.95703 12.3242 5.65625 11.9688 5.65625H4.09375L7.40234 2.53906C7.64844 2.26562 7.67578 1.85547 7.40234 1.58203L6.80078 0.980469C6.55469 0.734375 6.11719 0.734375 5.87109 0.980469L0.566406 6.3125C0.292969 6.55859 0.292969 6.96875 0.566406 7.21484L5.87109 12.5469C6.11719 12.793 6.52734 12.793 6.80078 12.5469L7.40234 11.9453Z" fill="white"/>
</svg>
