<svg width="14" height="14" viewBox="0 0 14 14" fill="none" xmlns="http://www.w3.org/2000/svg">
<path d="M8.0625 12.9062C8.375 12.5938 8.34375 12.125 8.0625 11.8125L4.28125 8.25H13.25C13.6875 8.25 14 7.90625 14 7.5V6.5C14 6.0625 13.6875 5.75 13.25 5.75L4.28125 5.75L8.0625 2.15625C8.34375 1.84375 8.34375 1.375 8.0625 1.0625L7.375 0.375C7.0625 0.09375 6.59375 0.09375 6.3125 0.375L0.21875 6.46875C-0.0625 6.75 -0.0625 7.21875 0.21875 7.53125L6.3125 13.5938C6.59375 13.875 7.0625 13.875 7.375 13.5938L8.0625 12.9062Z" fill="#183B56"/>
</svg>
